<svg width="24" height="24" viewBox="0 0 24 24" fill="none" xmlns="http://www.w3.org/2000/svg">
<path d="M12.3801 21.92C12.5028 21.8724 12.615 21.8011 12.7101 21.71L15.2101 19.21C15.3984 19.0217 15.5041 18.7663 15.5041 18.5C15.5041 18.2337 15.3984 17.9783 15.2101 17.79C15.0218 17.6017 14.7664 17.4959 14.5001 17.4959C14.2338 17.4959 13.9784 17.6017 13.7901 17.79L13.0001 18.59L13.0001 14C13.0001 13.7348 12.8947 13.4804 12.7072 13.2929C12.5196 13.1054 12.2653 13 12.0001 13C11.7348 13 11.4805 13.1054 11.293 13.2929C11.1054 13.4804 11.0001 13.7348 11.0001 14L11.0001 18.59L10.2101 17.79C10.1171 17.6963 10.0065 17.6219 9.88464 17.5711C9.76278 17.5204 9.63207 17.4942 9.50006 17.4942C9.36805 17.4942 9.23734 17.5204 9.11548 17.5711C8.99362 17.6219 8.88302 17.6963 8.79006 17.79C8.69633 17.883 8.62194 17.9936 8.57117 18.1154C8.5204 18.2373 8.49426 18.368 8.49426 18.5C8.49426 18.632 8.5204 18.7627 8.57117 18.8846C8.62194 19.0065 8.69633 19.1171 8.79006 19.21L11.2901 21.71C11.3852 21.8011 11.4973 21.8724 11.6201 21.92C11.8635 22.02 12.1366 22.02 12.3801 21.92ZM13.0001 10L13.0001 5.41002L13.7901 6.21002C13.9784 6.39832 14.2338 6.50411 14.5001 6.50411C14.7664 6.50411 15.0218 6.39832 15.2101 6.21002C15.3984 6.02171 15.5042 5.76632 15.5042 5.50002C15.5042 5.23372 15.3984 4.97832 15.2101 4.79002L12.7101 2.29002C12.615 2.19898 12.5028 2.12761 12.3801 2.08002C12.1366 1.98 11.8635 1.98 11.6201 2.08002C11.4973 2.12761 11.3852 2.19898 11.2901 2.29002L8.79006 4.79002C8.69633 4.88298 8.62194 4.99358 8.57117 5.11544C8.5204 5.2373 8.49426 5.36801 8.49426 5.50002C8.49426 5.63203 8.5204 5.76274 8.57117 5.88459C8.62194 6.00645 8.69633 6.11706 8.79006 6.21002C8.88302 6.30375 8.99362 6.37814 9.11548 6.42891C9.23734 6.47968 9.36805 6.50582 9.50006 6.50582C9.63207 6.50582 9.76278 6.47968 9.88464 6.42891C10.0065 6.37814 10.1171 6.30375 10.2101 6.21002L11.0001 5.41002L11.0001 10C11.0001 10.2652 11.1054 10.5196 11.293 10.7071C11.4805 10.8947 11.7348 11 12.0001 11C12.2653 11 12.5196 10.8947 12.7072 10.7071C12.8947 10.5196 13.0001 10.2652 13.0001 10Z" fill="black"/>
</svg>
