<svg width="14" height="20" viewBox="0 0 14 20" fill="none" xmlns="http://www.w3.org/2000/svg">
<path fill-rule="evenodd" clip-rule="evenodd" d="M11 0C10.2043 0 9.44128 0.316101 8.87866 0.878662C8.31604 1.44128 8 2.20435 8 3V17C8 17.7957 8.31604 18.5587 8.87866 19.1213C9.44128 19.684 10.2043 20 11 20C11.7957 20 12.5587 19.684 13.1213 19.1213C13.684 18.5587 14 17.7957 14 17V3C14 2.20435 13.684 1.44128 13.1213 0.878662C12.5587 0.316101 11.7957 0 11 0ZM3 0C2.20435 0 1.44128 0.316101 0.878662 0.878662C0.31604 1.44128 0 2.20435 0 3V17C0 17.7957 0.31604 18.5587 0.878662 19.1213C1.44128 19.684 2.20435 20 3 20C3.79565 20 4.55872 19.684 5.12134 19.1213C5.68396 18.5587 6 17.7957 6 17V3C6 2.20435 5.68396 1.44128 5.12134 0.878662C4.55872 0.316101 3.79565 0 3 0Z"/>
</svg>
