<svg width="18" height="18" viewBox="0 0 18 18" fill="none" xmlns="http://www.w3.org/2000/svg">
<path fill-rule="evenodd" clip-rule="evenodd" d="M15.54 6.00001L5.87997 0.460035C5.35727 0.158155 4.76401 7.3789e-05 4.16037 0.00172174C3.55673 0.00336969 2.96432 0.164747 2.44333 0.469434C1.92221 0.774183 1.49118 1.21132 1.19369 1.73659C0.89633 2.26185 0.743254 2.85646 0.749968 3.46003V14.58C0.749968 15.4871 1.11032 16.3569 1.75168 16.9983C2.39303 17.6397 3.26291 18 4.17001 18C4.77035 17.999 5.36007 17.8404 5.87997 17.54L15.54 12C16.059 11.6996 16.49 11.268 16.7895 10.7484C17.0891 10.2289 17.2468 9.63972 17.2468 9.03999C17.2468 8.44026 17.0891 7.85109 16.7895 7.33156C16.49 6.81202 16.059 6.38044 15.54 6.08003V6.00001Z"/>
</svg>
