<svg width="24" height="24" viewBox="0 0 24 24" fill="none" xmlns="http://www.w3.org/2000/svg">
<path d="M12.7101 10.71L15.2101 8.21C15.3984 8.0217 15.5042 7.7663 15.5042 7.5C15.5042 7.2337 15.3984 6.9783 15.2101 6.79C15.0218 6.6017 14.7664 6.49591 14.5001 6.49591C14.3682 6.49591 14.2376 6.52188 14.1158 6.57234C13.994 6.6228 13.8833 6.69676 13.7901 6.79L13.0001 7.59L13.0001 3C13.0001 2.73478 12.8947 2.48043 12.7072 2.29289C12.5196 2.10536 12.2653 2 12.0001 2C11.7348 2 11.4805 2.10536 11.293 2.29289C11.1054 2.48043 11.0001 2.73478 11.0001 3L11.0001 7.59L10.2101 6.79C10.1171 6.69627 10.0065 6.62188 9.88464 6.57111C9.76278 6.52034 9.63207 6.4942 9.50006 6.4942C9.36805 6.4942 9.23734 6.52034 9.11548 6.57111C8.99362 6.62188 8.88302 6.69627 8.79006 6.79C8.69633 6.88296 8.62194 6.99356 8.57117 7.11542C8.5204 7.23728 8.49426 7.36799 8.49426 7.5C8.49426 7.63201 8.5204 7.76272 8.57117 7.88458C8.62194 8.00644 8.69633 8.11704 8.79006 8.21L11.2901 10.71C11.3852 10.801 11.4973 10.8724 11.6201 10.92C11.8635 11.02 12.1366 11.02 12.3801 10.92C12.5028 10.8724 12.615 10.801 12.7101 10.71V10.71ZM13.0001 21L13.0001 16.41L13.7901 17.21C13.8833 17.3032 13.994 17.3772 14.1158 17.4277C14.2376 17.4781 14.3682 17.5041 14.5001 17.5041C14.6319 17.5041 14.7625 17.4781 14.8843 17.4277C15.0061 17.3772 15.1168 17.3032 15.2101 17.21C15.3033 17.1168 15.3773 17.0061 15.4277 16.8842C15.4782 16.7624 15.5041 16.6319 15.5041 16.5C15.5041 16.3681 15.4782 16.2376 15.4277 16.1158C15.3773 15.9939 15.3033 15.8832 15.2101 15.79L12.7101 13.29C12.615 13.199 12.5028 13.1276 12.3801 13.08C12.1366 12.98 11.8635 12.98 11.6201 13.08C11.4973 13.1276 11.3852 13.199 11.2901 13.29L8.79006 15.79C8.69633 15.883 8.62194 15.9936 8.57117 16.1154C8.5204 16.2373 8.49426 16.368 8.49426 16.5C8.49426 16.632 8.5204 16.7627 8.57117 16.8846C8.62194 17.0064 8.69633 17.117 8.79006 17.21C8.88302 17.3037 8.99362 17.3781 9.11548 17.4289C9.23734 17.4797 9.36805 17.5058 9.50006 17.5058C9.63207 17.5058 9.76278 17.4797 9.88464 17.4289C10.0065 17.3781 10.1171 17.3037 10.2101 17.21L11.0001 16.41L11.0001 21C11.0001 21.2652 11.1054 21.5196 11.293 21.7071C11.4805 21.8946 11.7348 22 12.0001 22C12.2653 22 12.5196 21.8946 12.7072 21.7071C12.8947 21.5196 13.0001 21.2652 13.0001 21Z" fill="black"/>
</svg>
