<svg width="13" height="13" viewBox="0 0 13 13" fill="none" xmlns="http://www.w3.org/2000/svg">
<path fill-rule="evenodd" clip-rule="evenodd" d="M11.7531 0.439362C11.1673 -0.146454 10.2176 -0.146454 9.63174 0.439362L6.11185 3.95926L2.87442 0.721832C2.2886 0.136078 1.3389 0.136078 0.753082 0.721832C0.167267 1.30765 0.167267 2.25735 0.753082 2.84317L3.99051 6.0806L0.439362 9.63174C-0.146454 10.2175 -0.146454 11.1673 0.439362 11.7531C1.02518 12.3388 1.97488 12.3388 2.5607 11.7531L6.11185 8.20193L9.94547 12.0356C10.5313 12.6213 11.481 12.6213 12.0668 12.0356C12.6526 11.4497 12.6526 10.5 12.0668 9.91422L8.23318 6.0806L11.7531 2.5607C12.3389 1.97488 12.3389 1.02512 11.7531 0.439362Z"/>
</svg>
